<svg width="29" height="20" viewBox="0 0 29 20" fill="none" xmlns="http://www.w3.org/2000/svg">
<rect x="0.43457" width="28" height="20" rx="2" fill="white"/>
<mask id="mask0_1667_2567" style="mask-type:alpha" maskUnits="userSpaceOnUse" x="0" y="0" width="29" height="20">
<rect x="0.43457" width="28" height="20" rx="2" fill="white"/>
</mask>
<g mask="url(#mask0_1667_2567)">
<rect x="0.43457" width="28" height="20" fill="#0A17A7"/>
<path fill-rule="evenodd" clip-rule="evenodd" d="M-0.847686 -1.9165L11.1014 6.14329V-1.33339H17.7681V6.14329L29.7173 -1.9165L31.2084 0.294263L21.761 6.66661H28.4348V13.3333H21.761L31.2084 19.7056L29.7173 21.9164L17.7681 13.8566V21.3333H11.1014V13.8566L-0.847686 21.9164L-2.33887 19.7056L7.10852 13.3333H0.434783V6.66661H7.10852L-2.33887 0.294263L-0.847686 -1.9165Z" fill="white"/>
<path d="M19.1025 6.33219L31.7679 -2" stroke="#DB1F35" stroke-width="0.666667" stroke-linecap="round"/>
<path d="M20.4473 13.6975L31.8011 21.3503" stroke="#DB1F35" stroke-width="0.666667" stroke-linecap="round"/>
<path d="M8.4397 6.31055L-3.40332 -1.6709" stroke="#DB1F35" stroke-width="0.666667" stroke-linecap="round"/>
<path d="M9.7242 13.605L-3.40332 22.3105" stroke="#DB1F35" stroke-width="0.666667" stroke-linecap="round"/>
<path fill-rule="evenodd" clip-rule="evenodd" d="M0.43457 12H12.4346V20H16.4346V12H28.4346V8H16.4346V0H12.4346V8H0.43457V12Z" fill="#E6273E"/>
</g>
</svg>
